<svg width="230" height="200" viewBox="0 0 230 200" fill="none" xmlns="http://www.w3.org/2000/svg">
<path d="M113.928 200C169.117 200 213.856 155.228 213.856 100C213.856 44.7715 169.117 0 113.928 0C58.7393 0 14 44.7715 14 100C14 155.228 58.7393 200 113.928 200Z" fill="#B1C6D4"/>
<g filter="url(#filter0_d_4717_46759)">
<path d="M205.082 41.0372V157.995C205.082 162.282 201.553 165.813 197.269 165.813H30.5901C26.3057 165.813 22.7773 162.282 22.7773 157.995V41.0372C22.7773 36.7496 26.3057 33.2188 30.5901 33.2188H197.269C201.553 33.2188 205.082 36.7496 205.082 41.0372Z" fill="url(#paint0_linear_4717_46759)"/>
</g>
<path d="M88.5424 90.3687L83.4927 90.4317C82.5282 90.5183 81.8633 89.6023 81.7943 88.828L81.7236 77.1262C81.6373 76.1583 82.55 75.4909 83.3216 75.4217L88.3713 75.3587C89.3358 75.2721 90.0007 76.1881 90.0697 76.9624L90.1404 88.6642C90.2267 89.6321 89.5241 90.4757 88.5424 90.3687Z" fill="#C4DED2"/>
<path d="M101.377 90.3829L96.3273 90.4459C95.3628 90.5325 94.6979 89.6165 94.6289 88.8421L94.6538 71.668C94.5675 70.7001 95.4803 70.0327 96.2518 69.9635L101.302 69.9005C102.266 69.8139 102.931 70.7299 103 71.5042L102.975 88.6784C103.061 89.6463 102.149 90.3136 101.377 90.3829Z" fill="#327355"/>
<path d="M114.002 90.2235L108.953 90.2865C107.988 90.373 107.323 89.4571 107.254 88.6827L107.165 65.8599C107.078 64.892 107.991 64.2247 108.763 64.1554L113.812 64.0924C114.777 64.0058 115.442 64.9218 115.511 65.6962L115.6 88.5189C115.687 89.4869 114.984 90.3305 114.002 90.2235Z" fill="#40936D"/>
<path d="M132.328 63.5703H188.917" stroke="#327355" stroke-width="2" stroke-miterlimit="10"/>
<path d="M132.328 74.4219H188.917" stroke="#40936D" stroke-width="2" stroke-miterlimit="10"/>
<path d="M132.328 85.2734H164.111" stroke="#327355" stroke-width="2" stroke-miterlimit="10"/>
<path d="M139.301 114.734H82.7116" stroke="#A3CEE9" stroke-width="2" stroke-miterlimit="10"/>
<path d="M139.301 125.586H82.7116" stroke="#DAEAF2" stroke-width="2" stroke-miterlimit="10"/>
<path d="M139.301 136.438H107.518" stroke="#A3CEE9" stroke-width="2" stroke-miterlimit="10"/>
<path d="M174.912 114.897L174.789 103.622C187.374 104.493 197.291 114.934 197.568 127.399C197.695 135.39 193.514 142.452 187.129 146.465L181.332 136.228C184.162 134.183 185.874 130.846 185.931 126.863C185.887 120.993 180.928 115.773 174.912 114.897Z" fill="#14B8A6"/>
<path d="M172.314 103.906L172.436 115.089C168.802 115.399 165.523 117.377 163.609 120.43L153.977 114.05C157.79 108.174 164.346 104.219 172.314 103.906Z" fill="#C4DED2"/>
<path d="M152.226 116.965L162.083 123.36C161.757 124.487 161.432 125.613 161.567 127.022C161.558 133.525 167.156 139.001 174.108 139.278C176.033 139.251 177.737 138.968 179.22 138.429L184.966 148.334C181.727 149.847 178.062 150.618 174.229 150.441C161.025 150.194 150.288 139.524 150.049 126.722C150.071 123.24 150.808 119.834 152.226 116.965Z" fill="#B6E9E3"/>
<path d="M227.342 172.415L211.156 155.951C209.763 154.534 207.859 153.86 205.996 153.929C205.326 153.954 204.648 153.763 204.178 153.285L202.226 151.3C201.518 150.58 201.463 149.45 202.05 148.629C212.119 134.543 210.838 114.677 198.394 102.019C187.603 91.0423 171.52 88.6148 158.447 94.8418C154.815 96.5305 151.391 98.9579 148.279 102.019C144.44 105.818 141.742 110.356 140.082 115.211C139.252 117.533 138.629 119.855 138.318 122.283C136.761 133.154 140.082 144.658 148.279 152.995C148.486 153.207 148.59 153.312 148.797 153.523C155.645 160.278 164.465 163.55 173.388 163.55C180.693 163.55 187.999 161.285 194.149 156.756C194.982 156.142 196.148 156.199 196.874 156.938L198.803 158.9C199.262 159.367 199.444 160.027 199.417 160.681C199.336 162.592 199.998 164.549 201.403 165.977L217.485 182.442C220.183 185.186 224.54 185.186 227.238 182.442C230.04 179.698 230.04 175.159 227.342 172.415ZM193.309 147.824C192.064 149.09 190.715 150.146 189.367 151.201C188.018 152.151 186.669 152.89 185.32 153.523C177.85 157.112 169.03 157.112 161.56 153.523C158.654 152.151 155.957 150.251 153.57 147.824C146.722 140.858 144.128 131.254 145.788 122.283C146.203 119.855 146.93 117.428 148.071 115.211C149.42 112.362 151.288 109.618 153.57 107.296C155.127 105.713 156.787 104.341 158.551 103.285C163.116 100.33 168.304 98.9579 173.492 98.9579C180.755 98.9579 187.914 101.702 193.413 107.296C204.308 118.483 204.308 136.636 193.309 147.824Z" fill="url(#paint1_linear_4717_46759)"/>
<path d="M23.7539 43.4141H70.2655V164.344H27.7539C25.5448 164.344 23.7539 162.553 23.7539 160.344V43.4141Z" fill="#F5F5F5"/>
<path d="M33.1016 62.0156H57.9078" stroke="#DAEAF2" stroke-width="2" stroke-miterlimit="10"/>
<path d="M33.1016 74.4219H53.2566" stroke="#A3CEE9" stroke-width="2" stroke-miterlimit="10"/>
<path d="M33.1016 86.8203H59.4582" stroke="#DAEAF2" stroke-width="2" stroke-miterlimit="10"/>
<path d="M33.1016 99.2266H43.9543" stroke="#A3CEE9" stroke-width="2" stroke-miterlimit="10"/>
<path d="M33.1016 111.633H54.807" stroke="#DAEAF2" stroke-width="2" stroke-miterlimit="10"/>
<path d="M33.1016 124.031H47.0551" stroke="#A3CEE9" stroke-width="2" stroke-miterlimit="10"/>
<path d="M205.082 41.0372V46.7118H22.7773V41.0372C22.7773 36.7496 26.3057 33.2188 30.5901 33.2188H197.269C201.553 33.2188 205.082 36.7496 205.082 41.0372Z" fill="url(#paint2_linear_4717_46759)"/>
<path d="M30.9646 42.4247C32.2869 42.4247 33.3588 41.352 33.3588 40.0288C33.3588 38.7055 32.2869 37.6328 30.9646 37.6328C29.6423 37.6328 28.5703 38.7055 28.5703 40.0288C28.5703 41.352 29.6423 42.4247 30.9646 42.4247Z" fill="#F5F5F5"/>
<path opacity="0.6" d="M38.4021 42.4247C39.7244 42.4247 40.7963 41.352 40.7963 40.0288C40.7963 38.7055 39.7244 37.6328 38.4021 37.6328C37.0798 37.6328 36.0078 38.7055 36.0078 40.0288C36.0078 41.352 37.0798 42.4247 38.4021 42.4247Z" fill="#F5F5F5"/>
<path opacity="0.4" d="M45.9646 42.4247C47.2869 42.4247 48.3588 41.352 48.3588 40.0288C48.3588 38.7055 47.2869 37.6328 45.9646 37.6328C44.6423 37.6328 43.5703 38.7055 43.5703 40.0288C43.5703 41.352 44.6423 42.4247 45.9646 42.4247Z" fill="#F5F5F5"/>
<defs>
<filter id="filter0_d_4717_46759" x="0.777344" y="22.2188" width="226.305" height="176.594" filterUnits="userSpaceOnUse" color-interpolation-filters="sRGB">
<feFlood flood-opacity="0" result="BackgroundImageFix"/>
<feColorMatrix in="SourceAlpha" type="matrix" values="0 0 0 0 0 0 0 0 0 0 0 0 0 0 0 0 0 0 127 0" result="hardAlpha"/>
<feOffset dy="11"/>
<feGaussianBlur stdDeviation="11"/>
<feColorMatrix type="matrix" values="0 0 0 0 0.397708 0 0 0 0 0.47749 0 0 0 0 0.575 0 0 0 0.27 0"/>
<feBlend mode="normal" in2="BackgroundImageFix" result="effect1_dropShadow_4717_46759"/>
<feBlend mode="normal" in="SourceGraphic" in2="effect1_dropShadow_4717_46759" result="shape"/>
</filter>
<linearGradient id="paint0_linear_4717_46759" x1="113.87" y1="30.1517" x2="113.87" y2="167.242" gradientUnits="userSpaceOnUse">
<stop stop-color="#EEEFF0"/>
<stop offset="0.9964" stop-color="#EEEFF0"/>
</linearGradient>
<linearGradient id="paint1_linear_4717_46759" x1="225.727" y1="91.4768" x2="140.733" y2="91.7675" gradientUnits="userSpaceOnUse">
<stop stop-color="#A3CEE9"/>
<stop offset="1" stop-color="#DAEAF2"/>
</linearGradient>
<linearGradient id="paint2_linear_4717_46759" x1="197.85" y1="33.2188" x2="28.7086" y2="41.1752" gradientUnits="userSpaceOnUse">
<stop stop-color="#40936D"/>
<stop offset="1" stop-color="#327355"/>
</linearGradient>
</defs>
</svg>
