<svg width="245" height="207" viewBox="0 0 245 207" fill="none" xmlns="http://www.w3.org/2000/svg">
<g id="Add Code">
<path id="Vector" d="M118.629 198.552C168.305 198.552 208.575 158.048 208.575 108.084C208.575 58.1208 168.305 17.6172 118.629 17.6172C68.9537 17.6172 28.6836 58.1208 28.6836 108.084C28.6836 158.048 68.9537 198.552 118.629 198.552Z" fill="#DAEAF2"/>
<g id="Code 2 1">
<g id="Group">
<g id="Group_2">
<g id="Group_3">
<g id="Vector_2" filter="url(#filter0_d_4963_3982)">
<path d="M34.832 61.4889V73.1386V165.972C34.832 170.159 38.2706 173.617 42.4331 173.617H192.101C196.264 173.617 199.703 170.159 199.703 165.972V73.1386V61.8529C199.703 57.3023 196.083 53.8438 191.74 53.8438H42.4331L34.832 61.4889Z" fill="url(#paint0_linear_4963_3982)"/>
</g>
</g>
</g>
<path id="Vector_3" d="M150.662 69.498H34.8359V61.4889C34.8359 57.3023 38.2745 53.8438 42.437 53.8438H192.105C196.268 53.8438 199.706 57.3023 199.706 61.4889V69.498H174.189H150.662Z" fill="url(#paint1_linear_4963_3982)"/>
<path id="Vector_4" d="M44.6079 64.5811C46.0072 64.5811 47.1416 63.4402 47.1416 62.0327C47.1416 60.6253 46.0072 59.4844 44.6079 59.4844C43.2086 59.4844 42.0742 60.6253 42.0742 62.0327C42.0742 63.4402 43.2086 64.5811 44.6079 64.5811Z" fill="#F5F5F5"/>
<path id="Vector_5" opacity="0.6" d="M51.8462 64.5811C53.2455 64.5811 54.3799 63.4402 54.3799 62.0327C54.3799 60.6253 53.2455 59.4844 51.8462 59.4844C50.4469 59.4844 49.3125 60.6253 49.3125 62.0327C49.3125 63.4402 50.4469 64.5811 51.8462 64.5811Z" fill="#F5F5F5"/>
<path id="Vector_6" opacity="0.4" d="M59.2641 64.5811C60.6635 64.5811 61.7978 63.4402 61.7978 62.0327C61.7978 60.6253 60.6635 59.4844 59.2641 59.4844C57.8648 59.4844 56.7305 60.6253 56.7305 62.0327C56.7305 63.4402 57.8648 64.5811 59.2641 64.5811Z" fill="#F5F5F5"/>
</g>
<g id="Group_4">
<g id="Group_5">
<g id="Group_6">
<path id="Vector_7" d="M110.308 114.457L80.8084 114.275C79.5416 114.275 78.6367 113.183 78.6367 112.091C78.6367 110.816 79.7226 109.906 80.8084 109.906L110.308 110.088C111.575 110.088 112.48 111.18 112.48 112.273C112.48 113.365 111.575 114.457 110.308 114.457Z" fill="#B1C6D4"/>
<path id="Vector_8" d="M180.344 114.457L146.32 114.275C145.053 114.275 144.148 113.183 144.148 112.091C144.148 110.816 145.234 109.906 146.32 109.906L180.163 110.088C181.43 110.088 182.335 111.18 182.335 112.273C182.516 113.365 181.611 114.457 180.344 114.457Z" fill="#DAEAF2"/>
<path id="Vector_9" d="M157.719 157.238L123.695 157.056C122.428 157.056 121.523 155.964 121.523 154.872C121.523 153.598 122.609 152.688 123.695 152.688L157.719 152.87C158.986 152.87 159.891 153.962 159.891 155.054C159.891 156.328 158.805 157.238 157.719 157.238Z" fill="#B1C6D4"/>
<path id="Vector_10" d="M136.731 114.277L120.262 114.095C118.995 114.095 118.09 113.003 118.09 111.911C118.09 110.637 119.176 109.727 120.262 109.727L136.731 109.909C137.997 109.909 138.902 111.001 138.902 112.093C139.083 113.367 137.997 114.277 136.731 114.277Z" fill="#C4DED2"/>
<path id="Vector_11" d="M69.0433 114.095H56.9178C55.651 114.095 54.7461 113.003 54.7461 111.911C54.7461 110.637 55.651 109.727 56.9178 109.727H69.0433C70.3102 109.727 71.215 110.819 71.215 111.911C71.215 113.185 70.3102 114.095 69.0433 114.095Z" fill="#C4DED2"/>
<path id="Vector_12" d="M116.099 128.66L98.3631 128.478C97.0963 128.478 96.1914 127.386 96.1914 126.294C96.1914 125.02 97.2773 124.109 98.3631 124.109L116.099 124.291C117.366 124.291 118.271 125.384 118.271 126.476C118.452 127.568 117.366 128.66 116.099 128.66Z" fill="#B1C6D4"/>
<path id="Vector_13" d="M171.114 129.024L126.051 128.478C124.784 128.478 123.879 127.386 123.879 126.294C123.879 125.02 124.965 124.109 126.051 124.109L171.114 124.655C172.381 124.655 173.286 125.748 173.286 126.84C173.286 127.932 172.2 129.024 171.114 129.024Z" fill="#B1C6D4"/>
<path id="Vector_14" d="M86.5981 128.478H56.9178C55.651 128.478 54.7461 127.386 54.7461 126.294C54.7461 125.02 55.832 124.109 56.9178 124.109H86.5981C87.865 124.109 88.7699 125.202 88.7699 126.294C88.7699 127.386 87.865 128.478 86.5981 128.478Z" fill="#DAEAF2"/>
<path id="Vector_15" d="M139.445 142.855L98.3631 142.673C97.0963 142.673 96.1914 141.581 96.1914 140.489C96.1914 139.215 97.2773 138.305 98.3631 138.305L139.626 138.487C140.893 138.487 141.798 139.579 141.798 140.671C141.798 141.945 140.712 142.855 139.445 142.855Z" fill="#C4DED2"/>
<path id="Vector_16" d="M86.5981 142.673H56.9178C55.651 142.673 54.7461 141.581 54.7461 140.489C54.7461 139.215 55.832 138.305 56.9178 138.305H86.5981C87.865 138.305 88.7699 139.397 88.7699 140.489C88.7699 141.581 87.865 142.673 86.5981 142.673Z" fill="#B1C6D4"/>
<path id="Vector_17" d="M112.298 157.058L89.6756 156.876C88.4088 156.876 87.5039 155.784 87.5039 154.692C87.5039 153.418 88.5898 152.508 89.6756 152.508L112.298 152.69C113.565 152.69 114.47 153.782 114.47 154.874C114.47 156.148 113.565 157.058 112.298 157.058Z" fill="#DAEAF2"/>
<path id="Vector_18" d="M75.1966 156.876H56.9178C55.651 156.876 54.7461 155.784 54.7461 154.692C54.7461 153.418 55.832 152.508 56.9178 152.508H75.1966C76.4634 152.508 77.3683 153.6 77.3683 154.692C77.5493 155.966 76.4634 156.876 75.1966 156.876Z" fill="#C4DED2"/>
<path id="Vector_19" d="M140.167 92.4358L56.9178 92.0718C55.651 92.0718 54.7461 90.9796 54.7461 89.8874C54.7461 88.6133 55.832 87.7031 56.9178 87.7031L140.167 88.0672C141.434 88.0672 142.339 89.1593 142.339 90.2515C142.339 91.5257 141.434 92.4358 140.167 92.4358Z" fill="#40936D"/>
</g>
</g>
</g>
</g>
<g id="Code 3">
<path id="Vector_20" d="M4.88639 82.8227C5.24834 83.1867 5.42932 83.5508 5.42932 84.0968C3.61955 89.3756 3.07662 89.5576 5.42932 90.4678C5.6103 90.4678 5.79128 90.8318 5.6103 91.0139C5.06737 92.4701 4.88639 93.5622 4.34346 93.3802C-4.16249 90.2858 4.52443 84.4609 0.180975 82.8227C-2.76419e-06 82.8227 0 82.6406 0 82.4586L0.904887 79.7282C0.904887 79.5462 1.08586 79.5462 1.26684 79.5462C3.43857 80.2743 3.61955 78.636 4.34346 76.6337C5.24834 73.7213 7.60105 72.8112 10.3157 73.7213C10.8586 73.9033 11.4016 74.0854 11.2206 74.4494C10.3157 77.1798 10.4967 76.9978 9.41082 76.6337C6.69616 75.7236 7.42007 83.0047 4.88639 82.8227Z" fill="#B6E9E3"/>
</g>
<g id="Code 2">
<path id="Vector_21" d="M238.523 83.3695C238.342 83.3695 238.342 83.5516 238.523 83.3695C238.885 83.7336 239.066 84.0976 239.066 84.6437C237.256 89.9225 236.713 90.1045 239.066 91.0147C239.247 91.0147 239.428 91.3787 239.247 91.5607C238.704 93.0169 238.523 94.1091 237.98 93.9271C229.474 90.8326 238.161 85.0078 233.818 83.3695C233.637 83.3695 233.637 83.1875 233.637 83.0055L234.542 80.2751C234.542 80.0931 234.723 80.0931 234.904 80.0931C237.075 80.8212 237.256 79.1829 237.98 77.1806C238.885 74.2682 241.238 73.3581 243.952 74.2682C244.495 74.4502 245.038 74.6322 244.857 74.9963C243.952 77.7267 244.133 77.5447 243.048 77.1806C240.152 76.4525 241.057 83.5516 238.523 83.3695Z" fill="#B6E9E3"/>
</g>
<g id="Code 1">
<path id="Vector_22" d="M132.837 4.73269C132.656 4.55067 132.656 4.55067 132.837 4.73269C132.475 5.09675 132.113 5.4608 131.751 5.4608C126.321 4.55067 125.959 4.00459 125.416 6.37093C125.416 6.55296 125.235 6.73499 124.874 6.73499C123.245 6.37093 122.34 6.55296 122.34 5.82485C123.969 -3.27648 131.208 4.55067 131.932 0.182026C131.932 -1.04428e-06 132.113 0 132.294 0L135.008 0.546079C135.189 0.546079 135.189 0.728107 135.189 0.910134C134.827 3.09445 136.275 3.09445 138.628 3.45851C141.523 4.00459 142.971 6.00688 142.428 8.91931C142.247 9.46539 142.247 10.0115 141.885 10.0115C139.171 9.46539 139.171 9.82944 139.533 8.55525C139.895 5.27877 132.837 7.28107 132.837 4.73269Z" fill="#B6E9E3"/>
</g>
<path id="Operation 3 2" d="M77.5453 17.2532C76.2785 18.5274 76.0975 20.7117 77.3643 21.9859C78.0882 22.896 79.3551 23.2601 80.6219 22.896C81.1649 23.6241 81.1649 24.5343 80.8029 25.2624L78.8122 28.1748C78.6312 28.3568 78.4502 28.7209 78.4502 28.9029L76.4594 26.7186C77.0024 24.8983 76.0975 23.0781 74.2877 22.532C72.4779 21.9859 70.6682 22.896 70.1252 24.7163C69.5823 26.5366 70.4872 28.3568 72.297 28.9029C72.8399 29.0849 73.5638 29.0849 74.1067 28.9029L79.3551 34.5457C78.8122 36.366 79.717 38.1863 81.5268 38.7324C83.3366 39.2784 85.1464 38.3683 85.6893 36.548C85.6893 36.366 85.6893 36.366 85.8703 36.184C85.8703 35.8199 85.8703 35.4559 85.8703 35.2739C85.6893 33.4536 84.0605 31.9974 82.0697 32.3614C81.8888 32.3614 81.8888 32.3614 81.7078 32.3614C81.1649 31.6333 80.9839 30.7232 81.5268 29.9951L83.5176 27.0827C84.7844 25.0804 84.6034 22.532 83.1556 20.7117C83.1556 20.5297 83.1556 20.3477 83.3366 20.3477C83.3366 19.9836 83.3366 19.6196 83.3366 19.4375C83.1556 17.6173 81.5268 16.3431 79.717 16.5251C78.6312 16.5251 78.0882 16.7071 77.5453 17.2532ZM72.4779 24.8983C73.0209 24.5343 73.5638 24.5343 74.1067 24.8983C74.4687 25.4444 74.4687 25.9905 74.1067 26.5366C73.5638 26.9006 73.0209 26.9006 72.4779 26.5366C71.935 26.1725 71.935 25.4444 72.4779 24.8983ZM83.3366 35.0918C83.5176 35.2739 83.5176 35.4559 83.5176 35.6379C83.5176 36.184 82.9746 36.7301 82.2507 36.7301C81.7078 36.7301 81.1649 36.184 81.1649 35.4559C81.1649 35.2739 81.3458 34.9098 81.3458 34.7278C81.5268 34.3637 81.8888 34.3637 82.2507 34.3637C82.7937 34.5457 83.1556 34.7278 83.3366 35.0918ZM78.8122 18.8915C79.1741 18.3454 79.898 18.3454 80.441 18.7094C80.6219 18.7094 80.6219 18.8915 80.6219 19.0735C80.6219 19.2555 80.6219 19.2555 80.8029 19.4375C80.8029 19.6196 80.8029 19.6196 80.8029 19.8016C80.8029 19.9836 80.8029 19.9836 80.8029 19.9836C80.6219 20.1656 80.441 20.3477 80.26 20.5297C79.717 20.8937 78.9931 20.5297 78.8122 19.9836C78.6312 19.8016 78.6312 19.2555 78.8122 18.8915Z" fill="#D9D5D0"/>
<path id="Node 2" d="M150.215 33.2478L147.5 34.7041C144.785 31.9736 140.623 31.9736 137.908 34.7041C136.46 36.1603 135.736 38.3446 136.098 40.5289L133.203 41.8031C132.66 41.9851 132.479 42.7132 132.841 43.0773L133.927 45.2616C134.108 45.8077 134.831 45.9897 135.193 45.6257L137.908 44.1694C140.623 46.8998 144.785 46.8998 147.5 44.1694C148.948 42.7132 149.672 40.5289 149.31 38.3446L152.024 36.8884C152.567 36.7063 152.748 35.9782 152.386 35.6142L151.3 33.4299C151.3 33.2478 150.576 33.0658 150.215 33.2478ZM144.242 42.5312C142.613 43.4413 140.623 42.7132 139.718 41.075C138.813 39.4367 139.537 37.4345 141.166 36.5243C142.794 35.6142 144.785 36.3423 145.69 37.9805C146.414 39.6188 145.871 41.6211 144.242 42.5312Z" fill="#14B8A6"/>
<g id="Operation 2 2">
<path id="Path 452 2" d="M24.4309 147.423L21.5352 142.145C20.4494 140.142 18.0967 139.414 16.1059 140.506L15.563 140.688L15.02 139.778C14.8391 139.414 14.4771 139.414 14.1151 139.596C13.9342 139.596 13.9342 139.778 13.7532 139.96L12.3054 143.601C12.1244 143.965 12.3054 144.329 12.6673 144.511C12.6673 144.511 12.6673 144.511 12.8483 144.511L16.6488 145.239C17.0108 145.239 17.3727 145.057 17.3727 144.693C17.3727 144.511 17.3727 144.329 17.3727 144.329L16.8298 143.419L17.3727 143.055C17.9157 142.691 18.8206 142.873 19.0015 143.601L21.8972 148.879C21.3543 149.79 21.3543 150.882 21.8972 151.792C22.6211 153.248 24.2499 153.612 25.6977 152.884C26.2406 152.52 26.6026 152.156 26.9646 151.61C27.1455 151.428 27.1455 151.064 27.1455 150.882C27.3265 149.244 26.2406 147.787 24.6118 147.605C24.6118 147.423 24.4309 147.423 24.4309 147.423ZM24.0689 151.064C23.8879 151.064 23.8879 151.064 24.0689 151.064C23.526 150.7 23.345 150.154 23.707 149.608C23.8879 149.244 24.2499 149.062 24.6118 149.062C24.7928 149.062 25.1548 149.244 25.3358 149.426C25.6977 149.79 25.6977 150.336 25.3358 150.7C24.7928 151.246 24.4309 151.246 24.0689 151.064Z" fill="#14B8A6"/>
<path id="Path 455 2" d="M8.50385 142.693C7.23701 143.421 6.69408 145.242 7.41799 146.516C7.96092 147.426 8.86581 147.972 9.95168 147.972L15.019 157.073C15.381 157.802 16.1049 157.984 16.8288 157.619C17.5527 157.255 17.7337 156.527 17.3718 155.799L12.3044 146.698C12.8473 145.788 12.8473 144.696 12.3044 143.785C11.5805 142.511 9.77069 141.965 8.50385 142.693ZM10.3136 145.97C9.77069 146.152 9.22777 146.152 9.04679 145.606C8.86581 145.06 8.86581 144.514 9.40874 144.332C9.95167 144.15 10.4946 144.15 10.6756 144.696C10.8566 145.242 10.6756 145.788 10.3136 145.97Z" fill="#14B8A6"/>
</g>
<path id="Operation 6 2" d="M224.314 118.279L224.495 117.915C225.038 116.823 225.038 115.731 224.495 114.639L222.866 111.18C222.685 110.998 222.685 110.634 222.866 110.452L223.409 109.178L224.314 109.724C224.676 109.906 225.038 109.724 225.219 109.36C225.219 109.178 225.219 108.996 225.219 108.996L224.495 104.991C224.495 104.627 224.133 104.445 223.771 104.445H223.59L219.971 106.084C219.609 106.266 219.428 106.63 219.609 106.994C219.609 107.176 219.79 107.176 219.971 107.358L220.876 107.904L220.333 109.178C220.152 109.36 219.971 109.542 219.79 109.542L215.989 110.088C214.903 110.27 213.817 110.998 213.456 111.908L213.275 112.272C211.646 112.272 210.379 113.547 210.379 115.185C210.379 116.823 211.646 118.097 213.275 118.097C214.903 118.097 216.17 116.823 216.17 115.185C216.17 114.639 215.989 114.093 215.627 113.729L215.808 113.365C215.989 113.183 216.17 113.001 216.351 113.001L219.609 112.454C219.971 112.454 220.333 112.637 220.514 113.001L221.961 116.095C222.142 116.277 222.142 116.641 221.961 116.823L221.78 117.187C220.152 117.187 218.885 118.643 219.066 120.1C219.066 121.738 220.514 123.012 221.961 122.83C223.59 122.83 224.857 121.374 224.676 119.918C224.857 119.372 224.676 118.825 224.314 118.279ZM212.913 116.277C212.37 116.095 212.189 115.367 212.551 115.003C212.732 114.457 213.456 114.275 213.817 114.639C214.36 114.821 214.541 115.549 214.179 115.913C213.998 116.277 213.275 116.459 212.913 116.277ZM221.419 120.828C220.876 120.646 220.695 119.918 221.057 119.554C221.238 119.007 221.961 118.825 222.323 119.189C222.685 119.554 223.047 120.1 222.685 120.464C222.504 120.828 221.961 121.01 221.419 120.828Z" fill="#D9D5D0"/>
<g id="Cart Add 2 1">
<g id="Group 557 1">
<path id="Path 291 1" d="M217.214 169.085C213.551 187.38 195.787 199.327 177.839 195.406C159.892 191.673 148.171 173.565 152.016 155.27C155.679 136.975 173.444 125.028 191.391 128.949C197.801 130.255 203.661 133.429 208.24 138.283C216.115 146.31 219.594 157.884 217.214 169.085Z" fill="url(#paint2_linear_4963_3982)"/>
<path id="Vector_23" d="M194.996 158.92H187.592V151.516C187.592 150.035 186.44 148.719 184.795 148.719C183.314 148.719 181.998 149.87 181.998 151.516V158.92H174.594C173.113 158.92 171.797 160.071 171.797 161.717C171.797 163.362 172.949 164.514 174.594 164.514H181.998V171.917C181.998 173.398 183.149 174.714 184.795 174.714C186.275 174.714 187.592 173.563 187.592 171.917V164.514H194.996C196.476 164.514 197.793 163.362 197.793 161.717C197.793 160.071 196.476 158.92 194.996 158.92Z" fill="#F5F5F5"/>
</g>
</g>
<path id="Operation 4 2" d="M105.592 187.812C104.506 187.994 103.602 188.722 103.24 189.814C100.344 190.36 97.9913 188.176 97.4484 187.083C98.5342 185.809 98.3533 183.989 97.0864 182.897C95.8196 181.805 94.0098 181.987 92.9239 183.261C91.8381 184.535 92.0191 186.355 93.2859 187.447C93.6478 187.63 94.0098 187.994 94.3718 187.994L95.6386 194.729C94.3718 195.821 94.1908 197.641 95.2766 198.915C96.3625 200.189 98.1723 200.371 99.4391 199.279C99.6201 199.279 99.6201 199.097 99.8011 199.097C99.9821 198.915 100.163 198.733 100.344 198.369C101.068 196.913 100.525 195.093 98.8962 194.365C98.7152 194.365 98.7152 194.182 98.5342 194.182L97.9913 191.634C99.6201 192.726 101.611 193.09 103.602 192.908H103.783C104.868 194.182 106.678 194.364 107.945 193.272C108.126 193.272 108.126 193.09 108.126 193.09C108.307 192.908 108.488 192.726 108.669 192.362C109.393 190.906 108.85 189.086 107.402 188.358C106.859 187.812 106.135 187.63 105.592 187.812ZM95.0957 183.989C95.6386 183.807 96.1815 184.171 96.3625 184.899C96.5435 185.445 96.1815 185.991 95.4576 186.173C94.9147 186.355 94.3718 185.991 94.1908 185.263C94.1908 184.717 94.5527 184.171 95.0957 183.989ZM97.9913 197.823C97.6294 198.187 96.9054 198.005 96.5435 197.641C96.1815 197.277 96.3625 196.549 96.7245 196.185C96.7245 196.185 96.9054 196.003 97.0864 196.003C97.2674 195.821 97.6294 196.003 97.8103 196.003C98.3533 196.367 98.5342 196.913 98.1723 197.459C98.3533 197.641 98.1723 197.641 97.9913 197.823ZM106.135 191.816C105.592 191.816 105.23 191.27 105.23 190.724C105.23 190.36 105.592 189.996 105.954 189.814C106.135 189.814 106.497 189.814 106.678 189.814C107.221 189.996 107.402 190.724 107.221 191.27C106.859 191.634 106.497 191.816 106.135 191.816Z" fill="#D9D5D0"/>
</g>
<defs>
<filter id="filter0_d_4963_3982" x="12.832" y="42.8438" width="208.871" height="163.773" filterUnits="userSpaceOnUse" color-interpolation-filters="sRGB">
<feFlood flood-opacity="0" result="BackgroundImageFix"/>
<feColorMatrix in="SourceAlpha" type="matrix" values="0 0 0 0 0 0 0 0 0 0 0 0 0 0 0 0 0 0 127 0" result="hardAlpha"/>
<feOffset dy="11"/>
<feGaussianBlur stdDeviation="11"/>
<feColorMatrix type="matrix" values="0 0 0 0 0.397708 0 0 0 0 0.47749 0 0 0 0 0.575 0 0 0 0.27 0"/>
<feBlend mode="normal" in2="BackgroundImageFix" result="effect1_dropShadow_4963_3982"/>
<feBlend mode="normal" in="SourceGraphic" in2="effect1_dropShadow_4963_3982" result="shape"/>
</filter>
<linearGradient id="paint0_linear_4963_3982" x1="117.214" y1="51.0733" x2="117.214" y2="174.909" gradientUnits="userSpaceOnUse">
<stop stop-color="#EEEFF0"/>
<stop offset="0.9964" stop-color="#F5F5F5"/>
</linearGradient>
<linearGradient id="paint1_linear_4963_3982" x1="117.271" y1="53.8438" x2="117.271" y2="69.498" gradientUnits="userSpaceOnUse">
<stop stop-color="#40936D"/>
<stop offset="1" stop-color="#327355"/>
</linearGradient>
<linearGradient id="paint2_linear_4963_3982" x1="151.255" y1="162.185" x2="217.964" y2="162.185" gradientUnits="userSpaceOnUse">
<stop stop-color="#DAEAF2"/>
<stop offset="1" stop-color="#A3CEE9"/>
</linearGradient>
</defs>
</svg>
